<svg viewBox="0 0 1024 1024" xmlns="http://www.w3.org/2000/svg"><defs><style/></defs><path d="M512 256c-141.397 0-256 114.603-256 256s114.603 256 256 256c141.38 0 256-114.603 256-256S653.38 256 512 256zm0 68.267c103.68 0 187.733 84.053 187.733 187.733S615.68 699.733 512 699.733c-103.697 0-187.733-84.053-187.733-187.733S408.303 324.267 512 324.267zm0 498.739a34.133 34.133 0 0134.03 31.573l.103 2.56v98.594a34.133 34.133 0 01-68.181 2.543l-.085-2.56V857.14A34.133 34.133 0 01512 823.006zm0-788.873a34.133 34.133 0 0134.03 31.574l.103 2.56v98.594a34.133 34.133 0 01-68.181 2.56l-.085-2.577V68.267A34.133 34.133 0 01512 34.133zm443.733 443.734a34.133 34.133 0 012.543 68.181l-2.56.085h-98.594a34.133 34.133 0 01-2.543-68.181l2.56-.085h98.577zm-788.855 0a34.133 34.133 0 012.56 68.181l-2.56.085H68.267a34.133 34.133 0 01-2.56-68.181l2.56-.085h98.61zm565.043 254.02a34.133 34.133 0 0146.08-1.98l2.185 1.997 69.717 69.734a34.133 34.133 0 01-46.114 50.262l-2.168-1.997-69.717-69.734a34.133 34.133 0 010-48.282zM174.097 174.08a34.133 34.133 0 0146.097-1.98l2.168 1.997 69.717 69.734a34.133 34.133 0 01-46.097 50.262l-2.168-1.997-69.734-69.717a34.133 34.133 0 010-48.265zm69.717 557.824a34.133 34.133 0 0150.279 46.08l-1.997 2.185-69.717 69.734a34.133 34.133 0 01-50.279-46.097l1.997-2.168 69.717-69.734zM825.754 149.965l48.281 48.264-117.982 118.016-48.281-48.264z"/></svg>