<svg viewBox="0 0 1024 1024" xmlns="http://www.w3.org/2000/svg"><defs><style/></defs><path d="M405.828 86.528C218.095 137.148 85.316 307.729 85.316 504.849c0 239.565 194.219 433.835 433.75 433.835 197.256 0 367.872-133.07 418.423-321.195 8.056-30.003-24.883-54.289-51.166-37.734a318.857 318.857 0 01-170.632 49.493c-177.494 0-321.383-143.872-321.383-321.229 0-60.928 17.272-119.364 49.323-170.393 16.503-26.3-7.817-59.205-37.803-51.115zm-58.965 96.256l-.495 1.417a385.877 385.877 0 00-20.326 123.818c0 215.074 174.455 389.479 389.632 389.479l8.533-.086a386.425 386.425 0 00115.541-20.31l1.536-.58-2.509 4.711C775.953 795.358 655.002 870.4 519.065 870.4c-201.83 0-365.465-163.67-365.465-365.55 0-137.644 76.868-259.943 193.263-322.083z"/><path d="M898.304 147.149a45.653 45.653 0 01-13.978 50.654L727.603 326.74h176.93v68.267H664.508a45.653 45.653 0 01-29.014-80.896l156.758-128.956H632.388V116.89H855.33c19.285 0 36.472 12.117 42.974 30.259z"/></svg>