<svg viewBox="0 0 1024 1024" xmlns="http://www.w3.org/2000/svg"><defs><style/></defs><path d="M512 153.6c-123.477 0-235.179 51.917-323.09 137.557C117.23 360.96 68.268 448.94 68.268 505.173v13.67c0 56.235 48.981 144.197 120.644 214.017C276.804 818.466 388.523 870.4 512 870.4c123.614 0 235.247-51.234 322.765-135.97 71.8-69.53 120.49-157.32 120.968-215.296v-13.96c-.478-58.266-49.169-146.057-120.968-215.587C747.247 204.851 635.597 153.6 512 153.6zm0 68.267c104.653 0 199.8 43.673 275.268 116.753 59.887 57.992 99.891 130.133 100.199 166.843v13.38c-.308 36.421-40.312 108.545-100.182 166.537C711.782 758.46 616.635 802.133 512 802.133c-104.346 0-199.56-44.236-275.456-118.186-59.733-58.18-100.01-130.526-100.01-165.103v-13.67c0-34.578 40.277-106.923 100.01-165.12C312.439 266.12 407.654 221.866 512 221.866z"/><path d="M512 341.333c-94.26 0-170.667 76.408-170.667 170.667S417.741 682.667 512 682.667 682.667 606.259 682.667 512 606.259 341.333 512 341.333zm0 68.267a102.4 102.4 0 110 204.8 102.4 102.4 0 010-204.8z"/></svg>