<?xml version="1.0" standalone="no"?><!DOCTYPE svg PUBLIC "-//W3C//DTD SVG 1.1//EN" "http://www.w3.org/Graphics/SVG/1.1/DTD/svg11.dtd"><svg t="1619097161347" class="icon" viewBox="0 0 1024 1024" version="1.1" xmlns="http://www.w3.org/2000/svg" p-id="2990" xmlns:xlink="http://www.w3.org/1999/xlink" width="200" height="200"><defs><style type="text/css"></style></defs><path d="M512 153.6c-123.477333 0-235.178667 51.9168-323.089067 137.557333C117.230933 360.96 68.266667 448.938667 68.266667 505.173333v13.6704c0 56.234667 48.981333 144.196267 120.644266 214.016C276.804267 818.466133 388.522667 870.4 512 870.4c123.613867 0 235.246933-51.234133 322.7648-135.970133 71.799467-69.5296 120.490667-157.320533 120.968533-215.296V505.173333c-0.477867-58.2656-49.169067-146.056533-120.968533-215.586133C747.246933 204.8512 635.5968 153.6 512 153.6z m0 68.266667c104.6528 0 199.799467 43.6736 275.268267 116.753066 59.886933 57.992533 99.8912 130.133333 100.1984 166.843734v13.380266c-0.3072 36.420267-40.311467 108.544-100.181334 166.536534C711.7824 758.459733 616.635733 802.133333 512 802.133333c-104.3456 0-199.560533-44.2368-275.456-118.186666C176.810667 625.7664 136.533333 553.4208 136.533333 518.843733V505.173333c0-34.577067 40.277333-106.922667 100.010667-165.12C312.439467 266.120533 407.6544 221.866667 512 221.866667z" fill="#444444" p-id="2991"></path><path d="M512 341.333333c-94.2592 0-170.666667 76.407467-170.666667 170.666667s76.407467 170.666667 170.666667 170.666667 170.666667-76.407467 170.666667-170.666667-76.407467-170.666667-170.666667-170.666667z m0 68.266667a102.4 102.4 0 1 1 0 204.8 102.4 102.4 0 0 1 0-204.8z" fill="#00B386" p-id="2992"></path></svg>