<svg viewBox="0 0 1024 1024" xmlns="http://www.w3.org/2000/svg"><defs><style/></defs><path d="M477.013 85.333c-216.337 0-391.68 175.343-391.68 391.663 0 216.32 175.343 391.663 391.68 391.663 216.286 0 391.646-175.36 391.646-391.68 0-216.286-175.36-391.646-391.68-391.646zm0 68.267c178.586 0 323.38 144.777 323.38 323.396 0 178.603-144.794 323.397-323.397 323.397-178.62 0-323.396-144.794-323.396-323.414 0-178.585 144.777-323.379 323.413-323.379z"/><path d="M713.557 713.557a34.133 34.133 0 0146.08-1.996l2.185 1.996 166.844 166.844a34.133 34.133 0 01-46.097 50.261l-2.185-1.996L713.54 761.822a34.133 34.133 0 010-48.265z"/><path d="M307.2 546.133a34.133 34.133 0 0130.345 18.5l-1.622-2.423c38.127 58.778 95.898 92.826 165.513 94.72l6.16.085v68.267c-93.866 0-173.687-44.373-225.382-120.542l-3.567-5.359.171-.12a34.133 34.133 0 0128.382-53.128z"/></svg>