<?xml version="1.0" standalone="no"?><!DOCTYPE svg PUBLIC "-//W3C//DTD SVG 1.1//EN" "http://www.w3.org/Graphics/SVG/1.1/DTD/svg11.dtd"><svg t="1619442898694" class="icon" viewBox="0 0 1024 1024" version="1.1" xmlns="http://www.w3.org/2000/svg" p-id="2990" xmlns:xlink="http://www.w3.org/1999/xlink" width="200" height="200"><defs><style type="text/css"></style></defs><path d="M477.013333 85.333333C260.676267 85.333333 85.333333 260.676267 85.333333 476.996267c0 216.32 175.342933 391.662933 391.68 391.662933 216.285867 0 391.645867-175.36 391.645867-391.68C868.6592 260.693333 693.2992 85.333333 476.9792 85.333333z m0 68.266667c178.5856 0 323.3792 144.776533 323.3792 323.396267 0 178.602667-144.7936 323.396267-323.396266 323.396266C298.376533 800.392533 153.6 655.598933 153.6 476.9792 153.6 298.3936 298.376533 153.6 477.013333 153.6z" fill="#444444" p-id="2991"></path><path d="M713.557333 713.557333a34.133333 34.133333 0 0 1 46.08-1.9968l2.184534 1.9968 166.843733 166.843734a34.133333 34.133333 0 0 1-46.097067 50.261333l-2.184533-1.9968-166.843733-166.843733a34.133333 34.133333 0 0 1 0-48.264534z" fill="#444444" p-id="2992"></path><path d="M307.2 546.133333a34.133333 34.133333 0 0 1 30.344533 18.500267l-1.621333-2.423467c38.126933 58.7776 95.8976 92.8256 165.512533 94.72l6.161067 0.085334v68.266666c-93.866667 0-173.687467-44.373333-225.3824-120.541866l-3.566933-5.358934 0.170666-0.119466A34.133333 34.133333 0 0 1 307.2 546.133333z" fill="#00B386" p-id="2993"></path></svg>