<?xml version="1.0" standalone="no"?><!DOCTYPE svg PUBLIC "-//W3C//DTD SVG 1.1//EN" "http://www.w3.org/Graphics/SVG/1.1/DTD/svg11.dtd"><svg t="1617535772039" class="icon" viewBox="0 0 1024 1024" version="1.1" xmlns="http://www.w3.org/2000/svg" p-id="16206" xmlns:xlink="http://www.w3.org/1999/xlink" width="200" height="200"><defs><style type="text/css"></style></defs><path d="M591.36 421.12l205.226667 16.213333L640 570.88l47.786667 199.68L512 663.466667l-176.213333 107.093333L384 570.88l-156.586667-133.546667 205.226667-16.213333L512 230.826667zM506.453333 85.333333a21.76 21.76 0 0 0-20.48 13.653334L381.44 350.293333l-272.64 21.76a20.906667 20.906667 0 0 0-18.773333 14.933334L85.333333 397.653333a20.906667 20.906667 0 0 0 6.4 23.04L298.666667 597.333333l-61.44 265.386667a21.76 21.76 0 0 0 8.106666 22.613333l10.666667 6.4a20.053333 20.053333 0 0 0 12.8 4.266667 20.48 20.48 0 0 0 11.093333-2.986667L512 750.933333l233.386667 142.08a20.48 20.48 0 0 0 11.093333 2.986667 20.053333 20.053333 0 0 0 12.8-4.266667l9.386667-6.4a21.76 21.76 0 0 0 8.106666-22.613333L725.333333 597.333333l207.36-177.066666a20.906667 20.906667 0 0 0 5.973334-22.613334l-3.413334-10.666666a20.906667 20.906667 0 0 0-18.773333-14.933334l-272.64-21.76-106.24-251.306666a20.906667 20.906667 0 0 0-20.053333-13.653334z" p-id="16207"></path></svg>