<svg viewBox="0 0 1024 1024" xmlns="http://www.w3.org/2000/svg"><defs><style/></defs><path d="M93.013 420.693a20.907 20.907 0 01-7.68-23.04l3.414-10.666a20.907 20.907 0 0118.773-14.934l272.64-21.76L484.693 98.987a21.76 21.76 0 0121.76-13.654h11.094A20.907 20.907 0 01537.6 98.987l104.96 251.306 272.64 21.76a20.907 20.907 0 0118.773 14.934l3.414 10.666a20.907 20.907 0 01-6.4 23.04l-205.654 176.64 63.147 264.96a21.76 21.76 0 01-8.107 22.614L768 891.733a21.333 21.333 0 01-23.893 0L512 750.933l-233.387 142.08a21.333 21.333 0 01-23.893 0l-9.387-6.4A21.76 21.76 0 01237.227 864l61.44-266.667z"/></svg>