<svg viewBox="0 0 1024 1024" xmlns="http://www.w3.org/2000/svg"><defs><style/></defs><path d="M938.667 397.653l-3.414-10.666a20.907 20.907 0 00-18.773-14.934l-272.64-21.76L537.6 98.987a20.907 20.907 0 00-20.053-13.654h-11.094a21.76 21.76 0 00-20.48 13.654L381.44 350.293l-272.64 21.76a20.907 20.907 0 00-18.773 14.934l-4.694 10.666a20.907 20.907 0 006.4 23.04l206.934 176.64-61.44 265.387a21.76 21.76 0 008.106 22.613l10.667 6.4A20.053 20.053 0 00268.8 896a20.48 20.48 0 0011.093-2.987L512 750.933l233.387 142.08A20.48 20.48 0 00756.48 896a20.053 20.053 0 0012.8-4.267l9.387-6.4a21.76 21.76 0 008.106-22.613l-61.44-265.387 207.36-177.066a20.907 20.907 0 005.974-22.614zM640 570.88l47.787 199.68L512 663.467v-432.64l79.36 190.293 205.227 16.213z"/></svg>